<?xml version="1.0" standalone="no"?>
<!DOCTYPE svg PUBLIC "-//W3C//DTD SVG 20010904//EN"
 "http://www.w3.org/TR/2001/REC-SVG-20010904/DTD/svg10.dtd">
<svg version="1.0" xmlns="http://www.w3.org/2000/svg"
 width="560.000000pt" height="500.000000pt" viewBox="0 0 560.000000 500.000000"
 preserveAspectRatio="xMidYMid meet">

<g transform="translate(0.000000,500.000000) scale(0.100000,-0.100000)"
fill="#000000" stroke="none">
<path d="M1650 4155 l0 -805 -820 0 -820 0 0 -1415 0 -1415 820 0 820 0 0
-145 0 -145 1145 0 1145 0 0 145 0 145 825 0 825 0 0 1415 0 1415 -825 0 -825
0 0 805 0 805 -1145 0 -1145 0 0 -805z m1236 428 c-4 -10 -84 -214 -179 -453
l-174 -435 -162 -3 c-129 -2 -162 0 -158 10 2 7 80 202 172 433 92 231 171
430 176 443 8 22 12 22 169 22 149 0 161 -1 156 -17z m500 0 c-4 -10 -84 -214
-179 -453 l-174 -435 -162 -3 c-129 -2 -162 0 -158 10 2 7 80 202 172 433 92
231 171 430 176 443 8 22 12 22 169 22 149 0 161 -1 156 -17z m2164 -2333 l0
-1060 -2750 0 -2750 0 0 1060 0 1060 2750 0 2750 0 0 -1060z m-5111 -1249 c25
-16 4 -41 -34 -41 l-35 0 0 -110 0 -110 -25 0 -25 0 0 110 0 110 -34 0 c-37 0
-51 12 -42 35 4 12 26 15 93 15 48 0 94 -4 102 -9z m150 0 c25 -5 51 -17 58
-27 19 -26 16 -71 -7 -94 -18 -18 -19 -22 -6 -43 8 -12 22 -39 31 -59 l15 -38
-30 0 c-26 0 -32 6 -51 49 -34 80 -69 80 -69 0 0 -46 -2 -49 -25 -49 l-25 0 0
129 c0 152 1 153 109 132z m259 -4 c10 -12 92 -234 92 -249 0 -5 -13 -8 -29
-8 -25 0 -31 5 -36 30 -6 29 -9 30 -60 30 -51 0 -54 -1 -60 -30 -5 -23 -12
-30 -31 -30 -13 0 -24 6 -24 13 0 24 81 242 93 249 18 12 43 9 55 -5z m251 4
c25 -16 4 -41 -34 -41 l-35 0 0 -110 0 -110 -25 0 -25 0 0 110 0 110 -34 0
c-37 0 -51 12 -42 35 4 12 26 15 93 15 48 0 94 -4 102 -9z m139 -4 c10 -12 92
-234 92 -249 0 -5 -13 -8 -29 -8 -25 0 -31 5 -36 30 -6 29 -9 30 -60 30 -51 0
-54 -1 -60 -30 -5 -23 -12 -30 -31 -30 -13 0 -24 6 -24 13 0 24 81 242 93 249
18 12 43 9 55 -5z m208 -8 c6 -4 23 -45 38 -89 16 -44 29 -80 31 -80 1 0 17
38 34 85 34 90 54 110 96 99 l25 -6 0 -129 0 -129 -25 0 -25 0 -1 108 c0 118
-1 118 -50 -21 -29 -82 -33 -88 -57 -85 -24 3 -30 14 -64 108 l-37 105 0 -107
-1 -108 -25 0 -25 0 0 129 c0 94 3 131 13 135 15 6 58 -2 73 -15z m332 -117
l3 -132 -26 0 -25 0 0 128 c0 71 3 132 7 136 4 4 14 5 23 4 12 -3 15 -26 18
-136z m211 129 c8 -5 11 -16 8 -25 -5 -12 -20 -16 -57 -16 -49 0 -50 -1 -50
-30 0 -29 2 -30 46 -30 41 0 45 -2 42 -22 -2 -19 -10 -24 -45 -26 -42 -3 -43
-4 -43 -38 l0 -34 55 0 c48 0 55 -2 55 -20 0 -18 -7 -20 -80 -20 l-80 0 0 129
c0 94 3 131 13 134 21 9 121 7 136 -2z m104 0 c17 -7 39 -37 68 -90 l44 -81 5
87 c5 80 7 88 25 88 19 0 20 -7 20 -130 l0 -130 -33 0 c-32 0 -36 4 -83 94
l-49 95 0 -97 c0 -97 0 -97 -25 -97 l-25 0 0 129 c0 94 3 131 13 134 6 3 13 6
14 6 1 1 13 -3 26 -8z m396 0 c25 -16 4 -41 -34 -41 l-35 0 0 -110 0 -110 -25
0 -25 0 0 110 0 110 -34 0 c-37 0 -51 12 -42 35 4 12 26 15 93 15 48 0 94 -4
102 -9z m207 -6 c64 -27 85 -148 37 -213 -48 -65 -163 -65 -203 1 -25 41 -27
128 -3 168 32 54 102 72 169 44z m357 -7 c50 -26 71 -115 43 -183 -20 -46 -61
-65 -141 -65 l-65 0 0 129 c0 94 3 131 13 135 17 7 128 -4 150 -16z m273 7
c64 -27 85 -148 37 -213 -48 -65 -163 -65 -203 1 -25 41 -27 128 -3 168 32 54
102 72 169 44z m258 5 c19 -7 26 -17 26 -35 0 -25 -14 -33 -25 -15 -3 6 -21
10 -40 10 -44 0 -65 -29 -65 -92 0 -77 41 -104 113 -73 14 6 17 2 17 -18 0
-36 -56 -54 -112 -38 -51 16 -78 59 -78 124 0 108 76 171 164 137z m116 -91
c3 -60 10 -102 19 -112 15 -19 43 -22 72 -7 17 10 19 22 19 109 0 103 7 119
46 104 23 -9 16 -188 -9 -226 -22 -34 -79 -50 -129 -36 -54 14 -68 47 -68 162
0 97 4 110 30 105 12 -3 16 -23 20 -99z m306 80 c6 -4 23 -45 38 -89 16 -44
29 -80 31 -80 1 0 17 38 34 85 34 90 54 110 96 99 l25 -6 0 -129 0 -129 -25 0
-25 0 -1 108 c0 118 -1 118 -50 -21 -29 -82 -33 -88 -57 -85 -24 3 -30 14 -64
108 l-37 105 0 -107 -1 -108 -25 0 -25 0 0 129 c0 94 3 131 13 135 15 6 58 -2
73 -15z m433 12 c8 -5 11 -16 8 -25 -5 -12 -20 -16 -57 -16 -49 0 -50 -1 -50
-30 0 -29 2 -30 46 -30 41 0 45 -2 42 -22 -2 -19 -10 -24 -45 -26 -42 -3 -43
-4 -43 -38 l0 -34 55 0 c48 0 55 -2 55 -20 0 -18 -7 -20 -80 -20 l-80 0 0 129
c0 94 3 131 13 134 21 9 121 7 136 -2z m104 0 c17 -7 39 -37 68 -90 l44 -81 5
87 c5 80 7 88 25 88 19 0 20 -7 20 -130 l0 -130 -33 0 c-32 0 -36 4 -83 94
l-49 95 0 -97 c0 -97 0 -97 -25 -97 l-25 0 0 129 c0 94 3 131 13 134 6 3 13 6
14 6 1 1 13 -3 26 -8z m386 0 c25 -16 4 -41 -34 -41 l-35 0 0 -110 0 -110 -25
0 -25 0 0 110 0 110 -34 0 c-37 0 -51 12 -42 35 4 12 26 15 93 15 48 0 94 -4
102 -9z m139 -4 c10 -12 92 -234 92 -249 0 -5 -13 -8 -29 -8 -25 0 -31 5 -36
30 -6 29 -9 30 -60 30 -51 0 -54 -1 -60 -30 -5 -23 -12 -30 -31 -30 -13 0 -24
6 -24 13 0 24 81 242 93 249 18 12 43 9 55 -5z m172 -102 l5 -110 45 -5 c31
-3 45 -10 45 -20 0 -12 -16 -16 -72 -18 l-73 -3 0 129 c0 71 3 132 7 136 4 4
14 5 23 4 12 -3 16 -24 20 -113z"/>
<path d="M3756 2948 c-4 -35 -14 -73 -22 -85 -17 -26 -3 -31 20 -7 12 11 16
35 16 85 0 38 -2 69 -4 69 -2 0 -7 -28 -10 -62z"/>
<path d="M3356 2926 c-22 -8 -48 -24 -59 -34 -23 -23 -34 -101 -18 -128 9 -16
10 -13 11 19 0 54 27 94 78 118 36 18 56 21 120 17 54 -4 69 -2 52 4 -46 17
-143 19 -184 4z"/>
<path d="M905 2921 c-10 -9 -5 -321 5 -321 6 0 10 52 10 135 0 124 2 137 21
156 20 20 29 21 113 17 50 -3 82 -2 71 2 -23 9 -213 18 -220 11z"/>
<path d="M1511 2864 c0 -11 3 -14 6 -6 3 7 2 16 -1 19 -3 4 -6 -2 -5 -13z"/>
<path d="M2168 2589 c-53 -160 -82 -259 -74 -259 6 0 46 100 89 228 85 249 93
277 80 285 -5 3 -48 -111 -95 -254z"/>
<path d="M4378 2589 c-53 -160 -82 -259 -74 -259 6 0 46 100 89 228 85 249 93
277 80 285 -5 3 -48 -111 -95 -254z"/>
<path d="M1512 2764 c-12 -90 -47 -152 -109 -200 -23 -18 -39 -35 -36 -38 15
-15 42 -3 75 32 57 59 81 116 86 205 2 42 2 77 0 77 -3 0 -10 -34 -16 -76z"/>
<path d="M900 2211 c0 -114 4 -181 10 -181 6 0 10 56 10 148 0 201 -5 195 151
191 70 -3 109 -1 96 4 -12 5 -77 11 -144 14 l-123 6 0 -182z"/>
<path d="M1591 2219 c-3 -191 -93 -309 -286 -375 -77 -27 -90 -28 -340 -34
-183 -4 -248 -8 -221 -14 61 -14 470 0 544 18 110 28 198 81 254 155 54 70 81
207 58 296 -6 22 -8 10 -9 -46z"/>
<path d="M3828 2192 c-5 -83 -10 -103 -43 -169 -43 -83 -95 -135 -177 -175
-96 -47 -169 -60 -307 -56 -85 3 -115 1 -95 -5 16 -5 83 -10 149 -11 98 -1
133 3 191 22 123 38 212 111 267 218 25 48 39 152 29 214 l-8 55 -6 -93z"/>
<path d="M2011 2088 c-5 -13 -26 -76 -47 -141 -25 -76 -46 -122 -57 -129 -10
-5 -55 -13 -100 -17 l-82 -8 85 -1 c124 -2 127 0 178 148 23 69 50 131 59 138
12 9 76 12 235 12 139 0 218 4 218 10 0 6 -87 10 -240 10 -240 0 -241 0 -249
-22z"/>
<path d="M4221 2088 c-5 -13 -26 -76 -47 -141 -25 -76 -46 -122 -57 -129 -10
-5 -55 -13 -100 -17 l-82 -8 85 -1 c124 -2 127 0 178 148 23 69 50 131 59 138
12 9 76 12 235 12 139 0 218 4 218 10 0 6 -87 10 -240 10 -240 0 -241 0 -249
-22z"/>
<path d="M2884 1836 c-8 -22 -31 -28 -129 -36 l-90 -7 98 -1 c85 -2 99 0 117
18 11 11 20 25 20 30 0 15 -10 12 -16 -4z"/>
<path d="M5094 1836 c-8 -22 -31 -28 -129 -36 l-90 -7 98 -1 c85 -2 99 0 117
18 11 11 20 25 20 30 0 15 -10 12 -16 -4z"/>
<path d="M677 1503 c-4 -3 -7 -64 -7 -134 0 -142 -2 -139 74 -139 65 0 102 17
117 52 11 27 10 36 -8 70 -12 21 -17 40 -12 44 13 8 11 57 -4 78 -19 26 -141
49 -160 29z m101 -52 c23 -14 10 -46 -21 -49 -23 -3 -27 0 -27 22 0 21 10 32
30 35 3 0 11 -3 18 -8z m6 -107 c9 -3 16 -16 16 -29 0 -23 -17 -35 -51 -35
-14 0 -19 7 -19 28 0 41 15 51 54 36z"/>
<path d="M971 1493 c-5 -11 -28 -71 -50 -135 -33 -98 -37 -117 -25 -122 29
-11 43 -6 56 22 11 23 20 27 58 30 42 3 46 1 57 -28 8 -23 17 -30 37 -30 36 0
34 21 -17 160 -41 112 -43 115 -74 118 -23 2 -34 -2 -42 -15z m53 -97 c3 -13
9 -31 12 -40 5 -13 -1 -16 -26 -16 -25 0 -31 3 -26 16 3 9 9 27 12 40 3 13 10
24 14 24 4 0 11 -11 14 -24z"/>
<path d="M1172 1502 c-9 -7 -12 -41 -10 -138 3 -117 5 -129 22 -132 28 -6 36
15 36 98 l0 75 41 -75 c45 -82 62 -100 95 -100 30 0 34 16 34 130 0 111 -11
153 -38 148 -14 -3 -18 -18 -22 -87 l-5 -83 -43 80 c-29 54 -49 82 -65 86 -28
7 -29 7 -45 -2z"/>
<path d="M1478 1494 c-40 -21 -58 -64 -58 -133 0 -52 4 -65 28 -92 23 -25 38
-33 79 -36 61 -6 96 9 91 40 -3 22 -9 23 -58 12 -18 -5 -34 0 -50 13 -20 17
-25 29 -24 66 1 67 25 90 87 83 41 -5 47 -4 47 13 0 44 -86 65 -142 34z"/>
<path d="M1698 1495 c-40 -22 -58 -65 -58 -136 0 -56 3 -64 34 -95 30 -30 40
-34 86 -34 54 0 104 21 116 49 29 71 20 163 -21 201 -32 30 -117 38 -157 15z
m126 -79 c13 -47 6 -87 -19 -111 -43 -44 -91 -26 -102 37 -7 49 12 95 46 106
33 11 67 -3 75 -32z"/>
<path d="M2037 1503 c-4 -3 -7 -64 -7 -134 0 -143 -2 -139 78 -139 99 0 161
65 147 156 -9 62 -47 103 -105 115 -55 10 -104 11 -113 2z m137 -75 c34 -48
10 -134 -39 -139 -44 -3 -45 -2 -45 81 l0 80 34 0 c25 0 39 -7 50 -22z"/>
<path d="M2297 1504 c-4 -4 -7 -65 -7 -135 0 -146 -5 -139 96 -139 62 0 64 1
64 25 0 23 -3 25 -51 25 l-50 0 3 33 c3 29 6 32 43 37 37 5 41 9 37 40 -1 6
-20 10 -42 10 -36 0 -40 3 -40 24 0 23 5 25 48 28 43 3 47 5 47 28 0 24 -3 25
-70 28 -39 1 -74 0 -78 -4z"/>
<path d="M2651 1493 c-5 -11 -28 -71 -50 -135 -33 -98 -37 -117 -25 -122 29
-11 43 -6 56 22 11 23 20 27 58 30 42 3 46 1 57 -28 8 -23 17 -30 37 -30 36 0
34 21 -17 160 -41 112 -43 115 -74 118 -23 2 -34 -2 -42 -15z m53 -97 c3 -13
9 -31 12 -40 5 -13 -1 -16 -26 -16 -25 0 -31 3 -26 16 3 9 9 27 12 40 3 13 10
24 14 24 4 0 11 -11 14 -24z"/>
<path d="M2835 1498 c-3 -8 -4 -70 -3 -139 l3 -124 25 0 c23 0 25 5 30 50 4
36 9 50 20 50 8 0 26 -22 40 -50 20 -39 31 -51 53 -53 34 -4 35 13 3 76 -24
47 -24 48 -5 71 25 31 24 64 -3 95 -19 21 -36 27 -90 32 -54 5 -69 4 -73 -8z
m103 -47 c8 -4 12 -19 10 -32 -2 -18 -10 -25 -30 -27 -25 -3 -28 0 -28 27 0
25 9 37 30 40 3 0 11 -3 18 -8z"/>
<path d="M3118 1494 c-40 -21 -58 -64 -58 -133 0 -52 4 -65 28 -92 23 -25 38
-33 79 -36 61 -6 96 9 91 40 -3 22 -9 23 -58 12 -18 -5 -34 0 -50 13 -20 17
-25 29 -24 66 1 67 25 90 87 83 41 -5 47 -4 47 13 0 44 -86 65 -142 34z"/>
<path d="M3295 1498 c-3 -8 -4 -70 -3 -139 l3 -124 25 0 c23 0 25 4 28 50 4
55 12 65 59 65 32 0 32 0 35 -57 3 -55 4 -58 31 -61 l28 -3 -3 138 -3 138 -25
0 c-23 0 -25 -4 -28 -52 l-3 -53 -44 0 -44 0 -3 53 c-3 45 -6 52 -26 55 -12 2
-24 -3 -27 -10z"/>
<path d="M3565 1498 c-3 -8 -4 -70 -3 -139 l3 -124 25 0 25 0 0 135 c0 132 0
135 -23 138 -12 2 -24 -3 -27 -10z"/>
<path d="M3648 1505 c-7 -7 69 -243 85 -263 6 -7 24 -12 41 -10 30 3 32 7 74
123 23 66 41 126 40 135 -2 9 -14 15 -28 15 -25 0 -36 -23 -84 -180 -5 -14
-16 9 -39 80 -29 89 -36 100 -58 103 -14 2 -28 0 -31 -3z"/>
<path d="M3958 1495 c-40 -22 -58 -65 -58 -136 0 -56 3 -64 34 -95 30 -30 40
-34 86 -34 54 0 104 21 116 49 29 71 20 163 -21 201 -32 30 -117 38 -157 15z
m126 -79 c13 -47 6 -87 -19 -111 -43 -44 -91 -26 -102 37 -7 49 12 95 46 106
33 11 67 -3 75 -32z"/>
<path d="M4206 1489 c-48 -38 -32 -105 34 -139 47 -24 56 -36 39 -56 -13 -15
-35 -15 -86 1 -19 6 -23 4 -23 -13 0 -50 103 -71 154 -31 20 16 26 29 26 58 0
41 -21 66 -77 95 -18 9 -33 20 -33 25 0 20 30 32 64 25 29 -5 36 -3 36 9 0 47
-86 64 -134 26z"/>
<path d="M4496 1489 c-48 -38 -32 -105 34 -139 47 -24 56 -36 39 -56 -13 -15
-35 -15 -86 1 -19 6 -23 4 -23 -13 0 -50 103 -71 154 -31 20 16 26 29 26 58 0
41 -21 66 -77 95 -18 9 -33 20 -33 25 0 20 30 32 64 25 29 -5 36 -3 36 9 0 47
-86 64 -134 26z"/>
<path d="M4851 1493 c-5 -11 -28 -71 -50 -135 -33 -98 -37 -117 -25 -122 29
-11 43 -6 56 22 11 23 20 27 58 30 42 3 46 1 57 -28 8 -23 17 -30 37 -30 36 0
34 21 -17 160 -41 112 -43 115 -74 118 -23 2 -34 -2 -42 -15z m53 -97 c3 -13
9 -31 12 -40 5 -13 -1 -16 -26 -16 -25 0 -31 3 -26 16 3 9 9 27 12 40 3 13 10
24 14 24 4 0 11 -11 14 -24z"/>
<path d="M4676 1285 c-9 -26 12 -57 37 -53 17 2 22 10 22 33 0 25 -4 31 -26
33 -17 2 -29 -3 -33 -13z"/>
<path d="M530 925 c0 -32 2 -35 30 -35 34 0 53 25 39 52 -6 11 -21 18 -39 18
-28 0 -30 -3 -30 -35z"/>
<path d="M801 910 c-7 -23 -15 -48 -18 -56 -4 -10 4 -14 32 -14 40 0 39 -5 11
79 l-12 33 -13 -42z"/>
<path d="M1191 910 c-7 -23 -15 -48 -18 -56 -4 -10 4 -14 32 -14 40 0 39 -5
11 79 l-12 33 -13 -42z"/>
<path d="M2585 940 c-12 -13 -17 -35 -17 -70 0 -59 21 -90 62 -90 44 0 62 21
68 78 6 68 -14 102 -62 102 -20 0 -40 -8 -51 -20z"/>
<path d="M2942 873 l3 -88 33 2 c50 2 72 27 72 84 0 59 -26 89 -77 89 l-34 0
3 -87z"/>
<path d="M3215 940 c-12 -13 -17 -35 -17 -70 0 -59 21 -90 62 -90 44 0 62 21
68 78 6 68 -14 102 -62 102 -20 0 -40 -8 -51 -20z"/>
<path d="M5021 910 c-7 -23 -15 -48 -18 -56 -4 -10 4 -14 32 -14 40 0 39 -5
11 79 l-12 33 -13 -42z"/>
</g>
</svg>
